<mxfile host="app.diagrams.net" modified="2023-04-13T07:13:06.745Z" agent="Mozilla/5.0 (Windows NT 10.0; Win64; x64) AppleWebKit/537.36 (KHTML, like Gecko) Chrome/112.0.0.0 Safari/537.36 Edg/112.0.1722.39" version="21.1.6" etag="nqtbAT_8M-hADJppQPmM" type="github">
  <diagram name="페이지-1" id="367YOS_emtPdQYmiceur">
    <mxGraphModel>
      <root>
        <mxCell id="0" />
        <mxCell id="1" parent="0" />
      </root>
    </mxGraphModel>
  </diagram>
</mxfile>
